<?xml version="1.0" encoding="UTF-8"?>
<svg version="1.1" xmlns="http://www.w3.org/2000/svg" viewBox="0 0 3300 2200">
 <g id="Notes">
  <rect id="artboard" x="0" y="0" width="3300" height="2200" style="fill:white;opacity:1"/>
  <text id="template-version" x="263" y="120" style="font-family:sans-serif;font-size:60">Template v.4.0</text>
  <text x="263" y="180" style="font-family:sans-serif;font-size:60">DiscoDrive sidebar glyph</text>
 </g>
 <g id="Guides">
  <line id="Capline-S" x1="263" y1="696" x2="3036" y2="696" style="stroke:#27aae1;stroke-width:0.5"/>
  <line id="Baseline-S" x1="263" y1="1136" x2="3036" y2="1136" style="stroke:#27aae1;stroke-width:0.5"/>
  <line id="Capline-M" x1="263" y1="1053.5" x2="3036" y2="1053.5" style="stroke:#27aae1;stroke-width:0.5"/>
  <line id="Baseline-M" x1="263" y1="1556.5" x2="3036" y2="1556.5" style="stroke:#27aae1;stroke-width:0.5"/>
  <line id="Capline-L" x1="263" y1="1420" x2="3036" y2="1420" style="stroke:#27aae1;stroke-width:0.5"/>
  <line id="Baseline-L" x1="263" y1="2000" x2="3036" y2="2000" style="stroke:#27aae1;stroke-width:0.5"/>
  <line id="left-margin-Regular-M" x1="1248.05" y1="993.5" x2="1248.05" y2="1616.5" style="stroke:#00aeef;stroke-width:0.5"/>
  <line id="right-margin-Regular-M" x1="2031.95" y1="993.5" x2="2031.95" y2="1616.5" style="stroke:#00aeef;stroke-width:0.5"/>
 </g>
 <g id="Symbols">
  <g id="Regular-M">
   <path d="M1626.67 953.05 C1591.83 955.36 1567.80 959.42 1541.86 967.31 C1495.80 981.31 1455.45 1002.54 1417.75 1032.78 C1402.15 1045.27 1380.75 1066.44 1369.21 1080.83 C1356.96 1096.19 1342.16 1117.04 1342.96 1117.90 C1343.20 1118.07 1367.31 1118.23 1396.50 1118.16 L1449.64 1117.99 L1454.42 1113.45 C1500.88 1069.46 1553.40 1045.43 1614.66 1040.02 C1628.58 1038.83 1660.72 1039.55 1672.02 1041.30 C1688.26 1043.76 1703.62 1047.18 1714.75 1050.84 C1776.89 1070.81 1826.13 1110.83 1860.74 1169.38 C1877.78 1198.19 1890.03 1232.87 1895.11 1266.85 C1899.97 1299.08 1899.88 1324.14 1894.72 1353.97 C1882.79 1423.90 1842.68 1483.57 1781.41 1522.80 C1745.85 1545.55 1704.16 1559.72 1660.65 1563.69 C1647.67 1564.88 1612.83 1564.17 1600.90 1562.50 C1562.31 1557.10 1525.79 1543.97 1493.97 1524.23 C1464.52 1506.01 1436.29 1478.96 1415.92 1449.52 C1404.53 1433.06 1397.70 1420.32 1390.14 1401.31 C1378.37 1371.79 1373.90 1349.59 1373.10 1316.49 C1372.32 1282.12 1376.06 1256.59 1386.56 1225.07 L1389.26 1217.12 L1523.65 1216.88 C1618.87 1216.73 1659.94 1216.88 1664.47 1217.53 C1672.19 1218.63 1685.47 1222.93 1692.63 1226.67 C1715.46 1238.68 1733.13 1261.75 1739.89 1288.17 C1741.40 1294.14 1741.64 1297.09 1741.56 1309.82 C1741.49 1322.95 1741.32 1325.33 1739.50 1332.09 C1730.34 1365.98 1702.10 1390.81 1666.46 1396.22 C1661.04 1397.01 1651.42 1397.33 1632.87 1397.33 L1606.78 1397.33 L1606.78 1324.14 L1606.78 1250.93 L1558.25 1250.93 L1509.72 1250.93 L1509.72 1364.71 L1509.72 1478.49 L1593.10 1478.49 C1644.26 1478.49 1679.75 1478.17 1685.15 1477.69 C1709.97 1475.30 1735.59 1466.78 1756.83 1453.74 C1785.32 1436.32 1809.90 1406.72 1822.00 1375.45 C1829.48 1356.04 1832.74 1339.57 1833.30 1317.61 C1833.77 1299.86 1832.98 1289.68 1829.56 1273.22 C1820.40 1228.59 1792.71 1189.43 1753.65 1165.88 C1734.79 1154.43 1710.62 1146.24 1686.90 1143.13 C1678.71 1142.10 1655.32 1141.94 1504.70 1141.94 C1409.63 1141.94 1331.10 1142.18 1330.15 1142.42 C1328.88 1142.74 1327.13 1145.83 1322.91 1154.91 C1303.73 1196.44 1292.76 1238.37 1289.26 1283.16 C1288.05 1298.60 1288.05 1328.11 1289.26 1340.84 C1295.05 1402.10 1316.46 1460.11 1351.24 1508.71 C1408.03 1588.04 1490.62 1639.60 1583.08 1653.45 C1603.75 1656.54 1612.27 1657.10 1638.61 1657.10 C1665.49 1657.10 1673.77 1656.47 1696.29 1652.65 C1744.99 1644.53 1791.13 1625.99 1832.02 1598.23 C1851.60 1584.86 1864.49 1574.12 1882.47 1556.13 C1936.32 1502.27 1971.65 1431.38 1981.43 1357.86 C1991.95 1278.71 1975.47 1194.76 1936.17 1127.14 C1901.32 1067.39 1851.44 1019.74 1792.71 990.29 C1745.14 966.34 1697.33 954.33 1645.77 953.14 C1637.65 952.90 1629.07 952.90 1626.67 953.05" fill-rule="evenodd"/>
  </g>
 </g>
</svg>
